<?xml version="1.0" encoding="UTF-8"?>
<svg width="24" height="24" viewBox="0 0 24 24" fill="none" xmlns="http://www.w3.org/2000/svg" aria-hidden="true">
  <rect width="24" height="24" rx="6" fill="#FFFFFF"/>
  <path d="M12.001 4.5c2.043 0 3.62.708 4.776 1.859l-1.936 1.936C14.09 7.07 13.182 6.72 12 6.72c-2.04 0-3.764 1.373-4.384 3.222-.156.453-.246.94-.246 1.44 0 .5.09.987.246 1.44.62 1.85 2.344 3.222 4.384 3.222 1.056 0 1.946-.29 2.636-.78.81-.564 1.345-1.383 1.556-2.46H12v-2.52h6.6c.066.39.12.792.12 1.26 0 2.016-.72 3.72-1.944 4.92C15.788 18.36 14.052 19.2 12 19.2 8.88 19.2 6.216 17.4 5.148 14.7 4.752 13.71 4.56 12.63 4.56 11.38c0-1.26.192-2.34.588-3.33C6.216 5.34 8.88 3.54 12.001 3.54v.96z" fill="#4285F4"/>
  <title>G</title>
</svg>
